<?xml version="1.0" encoding="UTF-8"?>
<svg version="1.1" viewBox="0 0 1920 1080" width="1280" height="1280" xmlns="http://www.w3.org/2000/svg">
    <path transform="translate(941,359)" d="m0 0h23l19 5 12 6 11 8 10 10 9 14 5 12 3 11 1 6v18l-4 18-8 16-8 11-10 10-11 7-10 5-6 2-1 35-3 9-7 8-6 3-10 1-9-3-8-7-4-10v-60l4-9 5-5 6-4 18-3 12-6 7-7 5-12v-16l-4-10-9-10-8-4-10-2-11 1-10 4-8 7-5 8-2 6-2 15-5 9-9 6-3 1h-11l-7-3-7-6-4-9v-14l3-15 7-16 9-13 11-11 11-7 10-5z"/>
    <path transform="translate(1084,484)" d="m0 0h17l13 3 14 7 11 9 9 10 8 16 3 12v21l-4 15-6 11-9 11-9 8-15 8-11 3-9 1h-10l-15-3-6-2-12 14-7 8-6 4-10 1-9-4-6-8-1-3v-9l4-8 12-14 18-22 5-3 4-1h8l7 3 10 6 3 1h13l10-4 5-4 5-9 2-6v-8l-3-10-6-8-6-4-5-2h-16l-10 5-7 7-5 3-10 1-10-5-4-5-2-4v-11l5-8 4-5 12-9 13-6z"/>
    <path transform="translate(813,511)" d="m0 0h8l14 3 10 4 11 8 9 10 8 16 2 7 1 14-2 14-6 14v4l9 11 6 8 2 4v9l-3 6-5 5-10 2-9-3-10-11-9-11-10-12-2-4v-11l4-7 7-8 3-9-1-11-4-8-8-6-8-3h-7l-11 4-8 9-2 5v13l5 10 3 5 1 8-3 8-7 6-3 1h-9l-7-4-8-11-5-11-2-8v-20l4-14 7-12 11-11 9-6 12-5z"/>
    <path transform="translate(950,591)" d="m0 0 10 1 8 5 6 7 2 7v7l-4 10-8 7-9 3-10-1-8-5-5-6-3-8v-7l3-9 7-7 6-3z"/>
    <path transform="translate(994,643)" d="m0 0h11l9 6 4 7v12l-5 8-6 4-3 1h-10l-6-3-7-8-1-3v-10l4-8 7-5z"/>
    <path transform="translate(898,651)" d="m0 0 8 2 7 6 2 5v9l-4 7-5 4-9 2-8-3-5-4-3-8 1-9 4-6 6-4z"/>
</svg>
